{
    "asset" : {
        "generator" : "Khronos glTF Blender I/O v1.7.33",
        "version" : "2.0"
    },
    "scene" : 0,
    "scenes" : [
        {
            "name" : "Scene",
            "nodes" : [
                0
            ]
        }
    ],
    "nodes" : [
        {
            "mesh" : 0,
            "name" : "polysoup",
            "scale" : [
                0.10000000149011612,
                0.10000000149011612,
                0.10000000149011612
            ]
        }
    ],
    "meshes" : [
        {
            "name" : "polysoup",
            "primitives" : [
                {
                    "attributes" : {
                        "POSITION" : 0,
                        "NORMAL" : 1
                    },
                    "indices" : 2
                }
            ]
        }
    ],
    "accessors" : [
        {
            "bufferView" : 0,
            "componentType" : 5126,
            "count" : 12360,
            "max" : [
                70.0009994506836,
                35.974998474121094,
                102.0009994506836
            ],
            "min" : [
                -86.77799987792969,
                -0.0010000000474974513,
                -75.1500015258789
            ],
            "type" : "VEC3"
        },
        {
            "bufferView" : 1,
            "componentType" : 5126,
            "count" : 12360,
            "type" : "VEC3"
        },
        {
            "bufferView" : 2,
            "componentType" : 5123,
            "count" : 12378,
            "type" : "SCALAR"
        }
    ],
    "bufferViews" : [
        {
            "buffer" : 0,
            "byteLength" : 148320,
            "byteOffset" : 0
        },
        {
            "buffer" : 0,
            "byteLength" : 148320,
            "byteOffset" : 148320
        },
        {
            "buffer" : 0,
            "byteLength" : 24756,
            "byteOffset" : 296640
        }
    ],
    "buffers" : [
        {
            "byteLength" : 321396,
            "uri" : "data:application/octet-stream;base64,"
        }
    ]
}
